<?xml version="1.0" encoding="utf-8"?>
<!-- Generator: Adobe Illustrator 27.9.0, SVG Export Plug-In . SVG Version: 6.00 Build 0)  -->
<svg version="1.1" id="Layer_1" xmlns="http://www.w3.org/2000/svg" xmlns:xlink="http://www.w3.org/1999/xlink" x="0px" y="0px"
	 viewBox="0 0 1920 1080" style="enable-background:new 0 0 1920 1080;" xml:space="preserve">
<style type="text/css">
	.st0{fill:#FFFFFF;}
</style>
<g>
	<path d="M292.92,643.99V493.11H393.9v-46.29H292.92v-77.54h-39.07l-4.81,42.08c-3.61,28.25-12.02,35.47-40.88,35.47H176.9v46.29
		h65.52V646.4c0,71.53,39.67,112.41,108.8,112.41h46.89v-48.69h-44.48C312.15,710.11,292.92,689.08,292.92,643.99z"/>
	<rect x="483.47" y="446.83" width="50.49" height="311.98"/>
	<path d="M508.72,316.39c-24.65,0-40.88,16.83-40.88,39.67c0,22.24,16.23,39.07,40.88,39.07c24.65,0,40.27-16.83,40.27-39.07
		C548.99,333.22,533.36,316.39,508.72,316.39z"/>
	<path d="M1019.06,439.01c-50.49,0-91.37,21.64-116.01,61.31c-21.04-40.27-59.51-61.31-109.4-61.31
		c-43.28,0-78.14,16.23-101.59,46.89l-4.81-39.07h-41.48V758.8h50.49V592.9c0-64.32,36.07-105.8,90.17-105.8
		c52.3,0,85.36,39.67,85.36,101.59V758.8h50.49V592.9c0-64.32,36.07-105.8,90.17-105.8c52.3,0,85.36,39.67,85.36,101.59V758.8h50.49
		V580.27C1148.3,493.11,1097.8,439.01,1019.06,439.01z"/>
	<path d="M1385.15,439.01c-67.93,0-119.02,36.67-132.85,96.78h51.09c10.22-30.66,42.08-49.89,82.35-49.89
		c52.9,0,85.36,29.45,85.36,78.14v11.42h-127.44c-64.92,0-107.6,36.67-107.6,93.17c0,58.91,45.08,94.98,120.22,94.98
		c50.49,0,90.17-16.23,118.42-48.09l5.41,43.28h41.48V560.44C1521.6,488.31,1466.9,439.01,1385.15,439.01z M1358.1,718.53
		c-43.88,0-71.53-19.84-71.53-50.49c0-29.45,24.04-48.09,58.91-48.09h126.23C1469.91,677.65,1423.02,718.53,1358.1,718.53z"/>
	<path d="M1675.2,321.77c32.11-1.86,59.49-0.84,65.07,6.42c0.68,0.68,1.69,0.68,2.2,0.17c0.68-0.51,0.85-1.52,0.34-2.2
		c-8.28-10.65-54.09-9.3-96.34-5.41c-1.52-1.01-3.38-1.35-5.75-1.52c-0.34,0-43.27-1.18-70.31,10.48c-0.68,0.34-1.01,1.18-0.85,1.86
		c0.17,0.84,1.01,1.18,1.69,1.18c17.24-2.53,45.63-6.42,74.37-8.96c1.01,0.85,1.18,1.69,1.35,2.03
		c2.87,8.11-10.65,28.39-29.07,51.04c-24.68,22.82-54.09,51.21-79.44,83.16c-0.34,0.68-0.34,1.52,0.34,2.03
		c0,0.34,0.51,0.34,0.84,0.34c0.34,0,0.68,0,1.01-0.17c10.48-8.96,50.37-48,79.1-82.99l14.71-13.52
		C1660.49,341.71,1674.18,329.04,1675.2,321.77z M1590.18,327.01c12.68-2.87,26.03-4.06,35.83-4.39
		C1612.32,323.97,1599.81,325.66,1590.18,327.01z M1557.39,442.28c13.18-14.87,26.87-29.07,40.06-41.75
		C1583.59,415.91,1569.05,430.62,1557.39,442.28z M1631.76,364.02c12.68-17.24,20.79-31.95,18.25-39.38l-0.51-1.18
		c7.44-0.68,15.04-1.18,22.48-1.52c-1.69,6.76-19.27,22.99-39.55,41.41L1631.76,364.02z"/>
	<path d="M1640.03,399.18l-0.85,0.68c-0.68,0.68-0.68,1.52-0.17,2.2c0.34,0.34,0.68,0.51,1.18,0.51c0.34,0,0.68,0,1.01-0.34
		l0.85-0.68c0.68-0.68,0.85-1.52,0.17-2.2C1641.72,398.84,1640.71,398.5,1640.03,399.18z"/>
	<path d="M1740.77,411.01c-16.39,5.24-30.59,8.11-32.62,8.28l-1.52,0.17c0.34-0.68,1.52-2.2,4.9-5.24c2.37-2.03,4.73-4.73,3.55-6.76
		c-1.52-2.37-6.08-1.35-9.64,0c-4.39,1.52-9.63,4.06-14.2,6.42c2.03-2.54,3.55-4.9,3.21-6.76c-0.17-1.02-0.84-1.86-2.03-2.37
		c-4.23-1.52-13.18,2.87-20.79,7.27l5.07-4.9c0.68-0.68,0.68-1.52,0-2.2c-0.51-0.51-1.52-0.51-2.03,0l-6.3,6.16
		c-10.38,3.87-31.44,8.21-38.83,8.21h-0.17c-2.37,0-3.38-0.51-3.55-1.18c-0.34-0.51,0.17-2.03,1.86-3.55l0.85-0.85
		c1.86-1.69,1.86-1.69,4.9-4.06l1.01-0.85c0.68-0.51,0.68-1.35,0.17-2.03c-0.51-0.68-1.35-0.85-2.03-0.34l-1.01,0.85
		c-3.21,2.37-3.21,2.54-5.07,4.22l-0.85,0.85c-2.54,2.2-3.55,4.9-2.7,6.93c0.51,1.35,2.03,3.04,6.42,3.04h0.17
		c6.5,0,22.57-3.19,33.99-6.52l-4.59,4.49c-0.68,0.51-0.68,1.52-0.17,2.03c0.34,0.34,0.68,0.51,1.18,0.51c0.34,0,0.68,0,0.85-0.17
		c9.46-6.76,26.03-16.73,30.59-15.04l0.17,0.17c0.34,1.35-5.07,7.27-11.32,12.34c-0.51,0.51-0.68,1.52-0.17,2.03
		c0.51,0.68,1.52,0.84,2.2,0.34c0.34-0.17,0.68-0.51,1.01-0.85c3.38-2.03,15.21-8.79,22.99-11.49c3.21-1.02,5.07-1.18,5.92-1.18
		c-0.34,0.51-1.01,1.52-2.7,3.04c-5.24,4.73-6.76,6.93-5.92,8.79c0.51,1.35,2.2,1.69,3.38,1.69l1.35-0.17
		c2.2-0.17,16.39-3.04,33.3-8.45c0.85-0.17,1.35-1.02,1.01-1.86C1742.46,411.18,1741.61,410.84,1740.77,411.01z"/>
</g>
</svg>
